<?xml version="1.0" encoding="utf-8" standalone="no"?>
<!DOCTYPE svg PUBLIC "-//W3C//DTD SVG 1.1//EN"
  "http://www.w3.org/Graphics/SVG/1.1/DTD/svg11.dtd">
<svg height="345.6pt" version="1.1" viewBox="0 0 460.8 345.6" width="460.8pt" xmlns="http://www.w3.org/2000/svg" xmlns:xlink="http://www.w3.org/1999/xlink">
 <metadata>
  <rdf:RDF xmlns:cc="http://creativecommons.org/ns#" xmlns:dc="http://purl.org/dc/elements/1.1/" xmlns:rdf="http://www.w3.org/1999/02/22-rdf-syntax-ns#">
   <cc:Work>
    <dc:type rdf:resource="http://purl.org/dc/dcmitype/StillImage"/>
    <dc:date>2021-05-18T23:19:15.686814</dc:date>
    <dc:format>image/svg+xml</dc:format>
    <dc:creator>
     <cc:Agent>
      <dc:title>Matplotlib v3.4.2, https://matplotlib.org/</dc:title>
     </cc:Agent>
    </dc:creator>
   </cc:Work>
  </rdf:RDF>
 </metadata>
 <defs>
  <style type="text/css">*{stroke-linecap:butt;stroke-linejoin:round;}</style>
 </defs>
 <g id="figure_1">
  <g id="patch_1">
   <path d="M 0 345.6 
L 460.8 345.6 
L 460.8 0 
L 0 0 
z
" style="fill:#ffffff;"/>
  </g>
  <g id="axes_1">
   <g id="patch_2">
    <path d="M 57.6 307.584 
L 414.72 307.584 
L 414.72 41.472 
L 57.6 41.472 
z
" style="fill:#ffffff;"/>
   </g>
   <g id="PolyCollection_1">
    <path clip-path="url(#pa5fc4b064c)" d="M 73.832727 305.074693 
L 73.832727 307.584 
L 109.905455 307.584 
L 145.978182 307.584 
L 182.050909 307.584 
L 218.123636 307.584 
L 254.196364 307.584 
L 290.269091 307.584 
L 326.341818 307.584 
L 362.414545 307.584 
L 398.487273 307.584 
L 398.487273 302.565386 
L 398.487273 302.565386 
L 362.414545 302.565386 
L 326.341818 302.565386 
L 290.269091 302.565386 
L 254.196364 302.565386 
L 218.123636 302.565386 
L 182.050909 302.565386 
L 145.978182 302.565386 
L 109.905455 302.565386 
L 73.832727 305.074693 
z
" style="fill:#1f77b4;"/>
   </g>
   <g id="PolyCollection_2">
    <path clip-path="url(#pa5fc4b064c)" d="M 73.832727 302.565386 
L 73.832727 305.074693 
L 109.905455 302.565386 
L 145.978182 302.565386 
L 182.050909 302.565386 
L 218.123636 302.565386 
L 254.196364 302.565386 
L 290.269091 302.565386 
L 326.341818 302.565386 
L 362.414545 302.565386 
L 398.487273 302.565386 
L 398.487273 297.546772 
L 398.487273 297.546772 
L 362.414545 297.546772 
L 326.341818 297.546772 
L 290.269091 297.546772 
L 254.196364 297.546772 
L 218.123636 297.546772 
L 182.050909 297.546772 
L 145.978182 297.546772 
L 109.905455 297.546772 
L 73.832727 302.565386 
z
" style="fill:#ff7f0e;"/>
   </g>
   <g id="PolyCollection_3">
    <path clip-path="url(#pa5fc4b064c)" d="M 73.832727 300.056079 
L 73.832727 302.565386 
L 109.905455 297.546772 
L 145.978182 297.546772 
L 182.050909 297.546772 
L 218.123636 297.546772 
L 254.196364 297.546772 
L 290.269091 297.546772 
L 326.341818 297.546772 
L 362.414545 297.546772 
L 398.487273 297.546772 
L 398.487273 292.528158 
L 398.487273 292.528158 
L 362.414545 292.528158 
L 326.341818 292.528158 
L 290.269091 292.528158 
L 254.196364 292.528158 
L 218.123636 292.528158 
L 182.050909 292.528158 
L 145.978182 292.528158 
L 109.905455 292.528158 
L 73.832727 300.056079 
z
" style="fill:#2ca02c;"/>
   </g>
   <g id="PolyCollection_4">
    <path clip-path="url(#pa5fc4b064c)" d="M 73.832727 297.546772 
L 73.832727 300.056079 
L 109.905455 292.528158 
L 145.978182 292.528158 
L 182.050909 292.528158 
L 218.123636 292.528158 
L 254.196364 292.528158 
L 290.269091 292.528158 
L 326.341818 292.528158 
L 362.414545 292.528158 
L 398.487273 292.528158 
L 398.487273 287.509545 
L 398.487273 287.509545 
L 362.414545 285.000238 
L 326.341818 287.509545 
L 290.269091 287.509545 
L 254.196364 287.509545 
L 218.123636 287.509545 
L 182.050909 287.509545 
L 145.978182 287.509545 
L 109.905455 287.509545 
L 73.832727 297.546772 
z
" style="fill:#d62728;"/>
   </g>
   <g id="PolyCollection_5">
    <path clip-path="url(#pa5fc4b064c)" d="M 73.832727 295.037465 
L 73.832727 297.546772 
L 109.905455 287.509545 
L 145.978182 287.509545 
L 182.050909 287.509545 
L 218.123636 287.509545 
L 254.196364 287.509545 
L 290.269091 287.509545 
L 326.341818 287.509545 
L 362.414545 285.000238 
L 398.487273 287.509545 
L 398.487273 282.490931 
L 398.487273 282.490931 
L 362.414545 279.981624 
L 326.341818 282.490931 
L 290.269091 282.490931 
L 254.196364 282.490931 
L 218.123636 282.490931 
L 182.050909 282.490931 
L 145.978182 282.490931 
L 109.905455 282.490931 
L 73.832727 295.037465 
z
" style="fill:#9467bd;"/>
   </g>
   <g id="PolyCollection_6">
    <path clip-path="url(#pa5fc4b064c)" d="M 73.832727 292.528158 
L 73.832727 295.037465 
L 109.905455 282.490931 
L 145.978182 282.490931 
L 182.050909 282.490931 
L 218.123636 282.490931 
L 254.196364 282.490931 
L 290.269091 282.490931 
L 326.341818 282.490931 
L 362.414545 279.981624 
L 398.487273 282.490931 
L 398.487273 277.472317 
L 398.487273 277.472317 
L 362.414545 274.96301 
L 326.341818 277.472317 
L 290.269091 277.472317 
L 254.196364 277.472317 
L 218.123636 277.472317 
L 182.050909 277.472317 
L 145.978182 277.472317 
L 109.905455 277.472317 
L 73.832727 292.528158 
z
" style="fill:#8c564b;"/>
   </g>
   <g id="PolyCollection_7">
    <path clip-path="url(#pa5fc4b064c)" d="M 73.832727 290.018851 
L 73.832727 292.528158 
L 109.905455 277.472317 
L 145.978182 277.472317 
L 182.050909 277.472317 
L 218.123636 277.472317 
L 254.196364 277.472317 
L 290.269091 277.472317 
L 326.341818 277.472317 
L 362.414545 274.96301 
L 398.487273 277.472317 
L 398.487273 272.453703 
L 398.487273 272.453703 
L 362.414545 269.944396 
L 326.341818 272.453703 
L 290.269091 272.453703 
L 254.196364 272.453703 
L 218.123636 272.453703 
L 182.050909 272.453703 
L 145.978182 272.453703 
L 109.905455 272.453703 
L 73.832727 290.018851 
z
" style="fill:#e377c2;"/>
   </g>
   <g id="PolyCollection_8">
    <path clip-path="url(#pa5fc4b064c)" d="M 73.832727 287.509545 
L 73.832727 290.018851 
L 109.905455 272.453703 
L 145.978182 272.453703 
L 182.050909 272.453703 
L 218.123636 272.453703 
L 254.196364 272.453703 
L 290.269091 272.453703 
L 326.341818 272.453703 
L 362.414545 269.944396 
L 398.487273 272.453703 
L 398.487273 267.435089 
L 398.487273 267.435089 
L 362.414545 264.925782 
L 326.341818 267.435089 
L 290.269091 267.435089 
L 254.196364 267.435089 
L 218.123636 267.435089 
L 182.050909 267.435089 
L 145.978182 267.435089 
L 109.905455 267.435089 
L 73.832727 287.509545 
z
" style="fill:#7f7f7f;"/>
   </g>
   <g id="PolyCollection_9">
    <path clip-path="url(#pa5fc4b064c)" d="M 73.832727 285.000238 
L 73.832727 287.509545 
L 109.905455 267.435089 
L 145.978182 267.435089 
L 182.050909 267.435089 
L 218.123636 267.435089 
L 254.196364 267.435089 
L 290.269091 267.435089 
L 326.341818 267.435089 
L 362.414545 264.925782 
L 398.487273 267.435089 
L 398.487273 262.416475 
L 398.487273 262.416475 
L 362.414545 259.907168 
L 326.341818 262.416475 
L 290.269091 262.416475 
L 254.196364 262.416475 
L 218.123636 262.416475 
L 182.050909 262.416475 
L 145.978182 262.416475 
L 109.905455 262.416475 
L 73.832727 285.000238 
z
" style="fill:#bcbd22;"/>
   </g>
   <g id="PolyCollection_10">
    <path clip-path="url(#pa5fc4b064c)" d="M 73.832727 282.490931 
L 73.832727 285.000238 
L 109.905455 262.416475 
L 145.978182 262.416475 
L 182.050909 262.416475 
L 218.123636 262.416475 
L 254.196364 262.416475 
L 290.269091 262.416475 
L 326.341818 262.416475 
L 362.414545 259.907168 
L 398.487273 262.416475 
L 398.487273 257.397861 
L 398.487273 257.397861 
L 362.414545 254.888554 
L 326.341818 257.397861 
L 290.269091 257.397861 
L 254.196364 257.397861 
L 218.123636 257.397861 
L 182.050909 257.397861 
L 145.978182 257.397861 
L 109.905455 257.397861 
L 73.832727 282.490931 
z
" style="fill:#17becf;"/>
   </g>
   <g id="PolyCollection_11">
    <path clip-path="url(#pa5fc4b064c)" d="M 73.832727 279.981624 
L 73.832727 282.490931 
L 109.905455 257.397861 
L 145.978182 257.397861 
L 182.050909 257.397861 
L 218.123636 257.397861 
L 254.196364 257.397861 
L 290.269091 257.397861 
L 326.341818 257.397861 
L 362.414545 254.888554 
L 398.487273 257.397861 
L 398.487273 252.379248 
L 398.487273 252.379248 
L 362.414545 249.869941 
L 326.341818 252.379248 
L 290.269091 252.379248 
L 254.196364 252.379248 
L 218.123636 252.379248 
L 182.050909 252.379248 
L 145.978182 252.379248 
L 109.905455 252.379248 
L 73.832727 279.981624 
z
" style="fill:#1f77b4;"/>
   </g>
   <g id="PolyCollection_12">
    <path clip-path="url(#pa5fc4b064c)" d="M 73.832727 277.472317 
L 73.832727 279.981624 
L 109.905455 252.379248 
L 145.978182 252.379248 
L 182.050909 252.379248 
L 218.123636 252.379248 
L 254.196364 252.379248 
L 290.269091 252.379248 
L 326.341818 252.379248 
L 362.414545 249.869941 
L 398.487273 252.379248 
L 398.487273 247.360634 
L 398.487273 247.360634 
L 362.414545 244.851327 
L 326.341818 247.360634 
L 290.269091 247.360634 
L 254.196364 247.360634 
L 218.123636 247.360634 
L 182.050909 247.360634 
L 145.978182 247.360634 
L 109.905455 247.360634 
L 73.832727 277.472317 
z
" style="fill:#ff7f0e;"/>
   </g>
   <g id="PolyCollection_13">
    <path clip-path="url(#pa5fc4b064c)" d="M 73.832727 274.96301 
L 73.832727 277.472317 
L 109.905455 247.360634 
L 145.978182 247.360634 
L 182.050909 247.360634 
L 218.123636 247.360634 
L 254.196364 247.360634 
L 290.269091 247.360634 
L 326.341818 247.360634 
L 362.414545 244.851327 
L 398.487273 247.360634 
L 398.487273 242.34202 
L 398.487273 242.34202 
L 362.414545 239.832713 
L 326.341818 242.34202 
L 290.269091 242.34202 
L 254.196364 242.34202 
L 218.123636 242.34202 
L 182.050909 242.34202 
L 145.978182 242.34202 
L 109.905455 242.34202 
L 73.832727 274.96301 
z
" style="fill:#2ca02c;"/>
   </g>
   <g id="PolyCollection_14">
    <path clip-path="url(#pa5fc4b064c)" d="M 73.832727 272.453703 
L 73.832727 274.96301 
L 109.905455 242.34202 
L 145.978182 242.34202 
L 182.050909 242.34202 
L 218.123636 242.34202 
L 254.196364 242.34202 
L 290.269091 242.34202 
L 326.341818 242.34202 
L 362.414545 239.832713 
L 398.487273 242.34202 
L 398.487273 237.323406 
L 398.487273 237.323406 
L 362.414545 234.814099 
L 326.341818 237.323406 
L 290.269091 237.323406 
L 254.196364 237.323406 
L 218.123636 237.323406 
L 182.050909 237.323406 
L 145.978182 237.323406 
L 109.905455 237.323406 
L 73.832727 272.453703 
z
" style="fill:#d62728;"/>
   </g>
   <g id="PolyCollection_15">
    <path clip-path="url(#pa5fc4b064c)" d="M 73.832727 269.944396 
L 73.832727 272.453703 
L 109.905455 237.323406 
L 145.978182 237.323406 
L 182.050909 237.323406 
L 218.123636 237.323406 
L 254.196364 237.323406 
L 290.269091 237.323406 
L 326.341818 237.323406 
L 362.414545 234.814099 
L 398.487273 237.323406 
L 398.487273 232.304792 
L 398.487273 232.304792 
L 362.414545 229.795485 
L 326.341818 232.304792 
L 290.269091 232.304792 
L 254.196364 232.304792 
L 218.123636 232.304792 
L 182.050909 232.304792 
L 145.978182 232.304792 
L 109.905455 232.304792 
L 73.832727 269.944396 
z
" style="fill:#9467bd;"/>
   </g>
   <g id="PolyCollection_16">
    <path clip-path="url(#pa5fc4b064c)" d="M 73.832727 267.435089 
L 73.832727 269.944396 
L 109.905455 232.304792 
L 145.978182 232.304792 
L 182.050909 232.304792 
L 218.123636 232.304792 
L 254.196364 232.304792 
L 290.269091 232.304792 
L 326.341818 232.304792 
L 362.414545 229.795485 
L 398.487273 232.304792 
L 398.487273 227.286178 
L 398.487273 227.286178 
L 362.414545 224.776871 
L 326.341818 227.286178 
L 290.269091 227.286178 
L 254.196364 227.286178 
L 218.123636 227.286178 
L 182.050909 227.286178 
L 145.978182 227.286178 
L 109.905455 227.286178 
L 73.832727 267.435089 
z
" style="fill:#8c564b;"/>
   </g>
   <g id="PolyCollection_17">
    <path clip-path="url(#pa5fc4b064c)" d="M 73.832727 264.925782 
L 73.832727 267.435089 
L 109.905455 227.286178 
L 145.978182 227.286178 
L 182.050909 227.286178 
L 218.123636 227.286178 
L 254.196364 227.286178 
L 290.269091 227.286178 
L 326.341818 227.286178 
L 362.414545 224.776871 
L 398.487273 227.286178 
L 398.487273 222.267564 
L 398.487273 222.267564 
L 362.414545 219.758257 
L 326.341818 222.267564 
L 290.269091 222.267564 
L 254.196364 222.267564 
L 218.123636 222.267564 
L 182.050909 222.267564 
L 145.978182 222.267564 
L 109.905455 222.267564 
L 73.832727 264.925782 
z
" style="fill:#e377c2;"/>
   </g>
   <g id="PolyCollection_18">
    <path clip-path="url(#pa5fc4b064c)" d="M 73.832727 262.416475 
L 73.832727 264.925782 
L 109.905455 222.267564 
L 145.978182 222.267564 
L 182.050909 222.267564 
L 218.123636 222.267564 
L 254.196364 222.267564 
L 290.269091 222.267564 
L 326.341818 222.267564 
L 362.414545 219.758257 
L 398.487273 222.267564 
L 398.487273 217.24895 
L 398.487273 217.24895 
L 362.414545 214.739644 
L 326.341818 217.24895 
L 290.269091 217.24895 
L 254.196364 217.24895 
L 218.123636 217.24895 
L 182.050909 217.24895 
L 145.978182 217.24895 
L 109.905455 217.24895 
L 73.832727 262.416475 
z
" style="fill:#7f7f7f;"/>
   </g>
   <g id="PolyCollection_19">
    <path clip-path="url(#pa5fc4b064c)" d="M 73.832727 259.907168 
L 73.832727 262.416475 
L 109.905455 217.24895 
L 145.978182 217.24895 
L 182.050909 217.24895 
L 218.123636 217.24895 
L 254.196364 217.24895 
L 290.269091 217.24895 
L 326.341818 217.24895 
L 362.414545 214.739644 
L 398.487273 217.24895 
L 398.487273 212.230337 
L 398.487273 212.230337 
L 362.414545 209.72103 
L 326.341818 212.230337 
L 290.269091 212.230337 
L 254.196364 212.230337 
L 218.123636 212.230337 
L 182.050909 212.230337 
L 145.978182 212.230337 
L 109.905455 212.230337 
L 73.832727 259.907168 
z
" style="fill:#bcbd22;"/>
   </g>
   <g id="PolyCollection_20">
    <path clip-path="url(#pa5fc4b064c)" d="M 73.832727 257.397861 
L 73.832727 259.907168 
L 109.905455 212.230337 
L 145.978182 212.230337 
L 182.050909 212.230337 
L 218.123636 212.230337 
L 254.196364 212.230337 
L 290.269091 212.230337 
L 326.341818 212.230337 
L 362.414545 209.72103 
L 398.487273 212.230337 
L 398.487273 207.211723 
L 398.487273 207.211723 
L 362.414545 204.702416 
L 326.341818 207.211723 
L 290.269091 207.211723 
L 254.196364 207.211723 
L 218.123636 207.211723 
L 182.050909 207.211723 
L 145.978182 207.211723 
L 109.905455 207.211723 
L 73.832727 257.397861 
z
" style="fill:#17becf;"/>
   </g>
   <g id="PolyCollection_21">
    <path clip-path="url(#pa5fc4b064c)" d="M 73.832727 254.888554 
L 73.832727 257.397861 
L 109.905455 207.211723 
L 145.978182 207.211723 
L 182.050909 207.211723 
L 218.123636 207.211723 
L 254.196364 207.211723 
L 290.269091 207.211723 
L 326.341818 207.211723 
L 362.414545 204.702416 
L 398.487273 207.211723 
L 398.487273 202.193109 
L 398.487273 202.193109 
L 362.414545 199.683802 
L 326.341818 202.193109 
L 290.269091 202.193109 
L 254.196364 202.193109 
L 218.123636 202.193109 
L 182.050909 202.193109 
L 145.978182 202.193109 
L 109.905455 202.193109 
L 73.832727 254.888554 
z
" style="fill:#1f77b4;"/>
   </g>
   <g id="PolyCollection_22">
    <path clip-path="url(#pa5fc4b064c)" d="M 73.832727 252.379248 
L 73.832727 254.888554 
L 109.905455 202.193109 
L 145.978182 202.193109 
L 182.050909 202.193109 
L 218.123636 202.193109 
L 254.196364 202.193109 
L 290.269091 202.193109 
L 326.341818 202.193109 
L 362.414545 199.683802 
L 398.487273 202.193109 
L 398.487273 197.174495 
L 398.487273 197.174495 
L 362.414545 194.665188 
L 326.341818 197.174495 
L 290.269091 197.174495 
L 254.196364 197.174495 
L 218.123636 197.174495 
L 182.050909 197.174495 
L 145.978182 197.174495 
L 109.905455 197.174495 
L 73.832727 252.379248 
z
" style="fill:#ff7f0e;"/>
   </g>
   <g id="PolyCollection_23">
    <path clip-path="url(#pa5fc4b064c)" d="M 73.832727 249.869941 
L 73.832727 252.379248 
L 109.905455 197.174495 
L 145.978182 197.174495 
L 182.050909 197.174495 
L 218.123636 197.174495 
L 254.196364 197.174495 
L 290.269091 197.174495 
L 326.341818 197.174495 
L 362.414545 194.665188 
L 398.487273 197.174495 
L 398.487273 192.155881 
L 398.487273 192.155881 
L 362.414545 189.646574 
L 326.341818 192.155881 
L 290.269091 192.155881 
L 254.196364 192.155881 
L 218.123636 192.155881 
L 182.050909 192.155881 
L 145.978182 192.155881 
L 109.905455 192.155881 
L 73.832727 249.869941 
z
" style="fill:#2ca02c;"/>
   </g>
   <g id="PolyCollection_24">
    <path clip-path="url(#pa5fc4b064c)" d="M 73.832727 247.360634 
L 73.832727 249.869941 
L 109.905455 192.155881 
L 145.978182 192.155881 
L 182.050909 192.155881 
L 218.123636 192.155881 
L 254.196364 192.155881 
L 290.269091 192.155881 
L 326.341818 192.155881 
L 362.414545 189.646574 
L 398.487273 192.155881 
L 398.487273 187.137267 
L 398.487273 187.137267 
L 362.414545 184.62796 
L 326.341818 187.137267 
L 290.269091 187.137267 
L 254.196364 187.137267 
L 218.123636 187.137267 
L 182.050909 187.137267 
L 145.978182 187.137267 
L 109.905455 187.137267 
L 73.832727 247.360634 
z
" style="fill:#d62728;"/>
   </g>
   <g id="PolyCollection_25">
    <path clip-path="url(#pa5fc4b064c)" d="M 73.832727 244.851327 
L 73.832727 247.360634 
L 109.905455 187.137267 
L 145.978182 187.137267 
L 182.050909 187.137267 
L 218.123636 187.137267 
L 254.196364 187.137267 
L 290.269091 187.137267 
L 326.341818 187.137267 
L 362.414545 184.62796 
L 398.487273 187.137267 
L 398.487273 182.118653 
L 398.487273 182.118653 
L 362.414545 179.609347 
L 326.341818 182.118653 
L 290.269091 182.118653 
L 254.196364 182.118653 
L 218.123636 182.118653 
L 182.050909 182.118653 
L 145.978182 182.118653 
L 109.905455 182.118653 
L 73.832727 244.851327 
z
" style="fill:#9467bd;"/>
   </g>
   <g id="PolyCollection_26">
    <path clip-path="url(#pa5fc4b064c)" d="M 73.832727 242.34202 
L 73.832727 244.851327 
L 109.905455 182.118653 
L 145.978182 182.118653 
L 182.050909 182.118653 
L 218.123636 182.118653 
L 254.196364 182.118653 
L 290.269091 182.118653 
L 326.341818 182.118653 
L 362.414545 179.609347 
L 398.487273 182.118653 
L 398.487273 177.10004 
L 398.487273 177.10004 
L 362.414545 174.590733 
L 326.341818 177.10004 
L 290.269091 177.10004 
L 254.196364 177.10004 
L 218.123636 177.10004 
L 182.050909 177.10004 
L 145.978182 177.10004 
L 109.905455 177.10004 
L 73.832727 242.34202 
z
" style="fill:#8c564b;"/>
   </g>
   <g id="PolyCollection_27">
    <path clip-path="url(#pa5fc4b064c)" d="M 73.832727 239.832713 
L 73.832727 242.34202 
L 109.905455 177.10004 
L 145.978182 177.10004 
L 182.050909 177.10004 
L 218.123636 177.10004 
L 254.196364 177.10004 
L 290.269091 177.10004 
L 326.341818 177.10004 
L 362.414545 174.590733 
L 398.487273 177.10004 
L 398.487273 172.081426 
L 398.487273 172.081426 
L 362.414545 169.572119 
L 326.341818 172.081426 
L 290.269091 172.081426 
L 254.196364 172.081426 
L 218.123636 172.081426 
L 182.050909 172.081426 
L 145.978182 172.081426 
L 109.905455 172.081426 
L 73.832727 239.832713 
z
" style="fill:#e377c2;"/>
   </g>
   <g id="PolyCollection_28">
    <path clip-path="url(#pa5fc4b064c)" d="M 73.832727 237.323406 
L 73.832727 239.832713 
L 109.905455 172.081426 
L 145.978182 172.081426 
L 182.050909 172.081426 
L 218.123636 172.081426 
L 254.196364 172.081426 
L 290.269091 172.081426 
L 326.341818 172.081426 
L 362.414545 169.572119 
L 398.487273 172.081426 
L 398.487273 167.062812 
L 398.487273 167.062812 
L 362.414545 164.553505 
L 326.341818 167.062812 
L 290.269091 167.062812 
L 254.196364 167.062812 
L 218.123636 167.062812 
L 182.050909 167.062812 
L 145.978182 167.062812 
L 109.905455 167.062812 
L 73.832727 237.323406 
z
" style="fill:#7f7f7f;"/>
   </g>
   <g id="PolyCollection_29">
    <path clip-path="url(#pa5fc4b064c)" d="M 73.832727 234.814099 
L 73.832727 237.323406 
L 109.905455 167.062812 
L 145.978182 167.062812 
L 182.050909 167.062812 
L 218.123636 167.062812 
L 254.196364 167.062812 
L 290.269091 167.062812 
L 326.341818 167.062812 
L 362.414545 164.553505 
L 398.487273 167.062812 
L 398.487273 162.044198 
L 398.487273 162.044198 
L 362.414545 159.534891 
L 326.341818 162.044198 
L 290.269091 162.044198 
L 254.196364 162.044198 
L 218.123636 162.044198 
L 182.050909 162.044198 
L 145.978182 162.044198 
L 109.905455 162.044198 
L 73.832727 234.814099 
z
" style="fill:#bcbd22;"/>
   </g>
   <g id="PolyCollection_30">
    <path clip-path="url(#pa5fc4b064c)" d="M 73.832727 232.304792 
L 73.832727 234.814099 
L 109.905455 162.044198 
L 145.978182 162.044198 
L 182.050909 162.044198 
L 218.123636 162.044198 
L 254.196364 162.044198 
L 290.269091 162.044198 
L 326.341818 162.044198 
L 362.414545 159.534891 
L 398.487273 162.044198 
L 398.487273 157.025584 
L 398.487273 157.025584 
L 362.414545 154.516277 
L 326.341818 157.025584 
L 290.269091 157.025584 
L 254.196364 157.025584 
L 218.123636 157.025584 
L 182.050909 157.025584 
L 145.978182 157.025584 
L 109.905455 157.025584 
L 73.832727 232.304792 
z
" style="fill:#17becf;"/>
   </g>
   <g id="PolyCollection_31">
    <path clip-path="url(#pa5fc4b064c)" d="M 73.832727 229.795485 
L 73.832727 232.304792 
L 109.905455 157.025584 
L 145.978182 157.025584 
L 182.050909 157.025584 
L 218.123636 157.025584 
L 254.196364 157.025584 
L 290.269091 157.025584 
L 326.341818 157.025584 
L 362.414545 154.516277 
L 398.487273 157.025584 
L 398.487273 152.00697 
L 398.487273 152.00697 
L 362.414545 149.497663 
L 326.341818 152.00697 
L 290.269091 152.00697 
L 254.196364 152.00697 
L 218.123636 152.00697 
L 182.050909 152.00697 
L 145.978182 152.00697 
L 109.905455 152.00697 
L 73.832727 229.795485 
z
" style="fill:#1f77b4;"/>
   </g>
   <g id="PolyCollection_32">
    <path clip-path="url(#pa5fc4b064c)" d="M 73.832727 227.286178 
L 73.832727 229.795485 
L 109.905455 152.00697 
L 145.978182 152.00697 
L 182.050909 152.00697 
L 218.123636 152.00697 
L 254.196364 152.00697 
L 290.269091 152.00697 
L 326.341818 152.00697 
L 362.414545 149.497663 
L 398.487273 152.00697 
L 398.487273 146.988356 
L 398.487273 146.988356 
L 362.414545 144.47905 
L 326.341818 146.988356 
L 290.269091 146.988356 
L 254.196364 146.988356 
L 218.123636 146.988356 
L 182.050909 146.988356 
L 145.978182 146.988356 
L 109.905455 146.988356 
L 73.832727 227.286178 
z
" style="fill:#ff7f0e;"/>
   </g>
   <g id="PolyCollection_33">
    <path clip-path="url(#pa5fc4b064c)" d="M 73.832727 224.776871 
L 73.832727 227.286178 
L 109.905455 146.988356 
L 145.978182 146.988356 
L 182.050909 146.988356 
L 218.123636 146.988356 
L 254.196364 146.988356 
L 290.269091 146.988356 
L 326.341818 146.988356 
L 362.414545 144.47905 
L 398.487273 146.988356 
L 398.487273 141.969743 
L 398.487273 141.969743 
L 362.414545 139.460436 
L 326.341818 141.969743 
L 290.269091 141.969743 
L 254.196364 141.969743 
L 218.123636 141.969743 
L 182.050909 141.969743 
L 145.978182 141.969743 
L 109.905455 141.969743 
L 73.832727 224.776871 
z
" style="fill:#2ca02c;"/>
   </g>
   <g id="PolyCollection_34">
    <path clip-path="url(#pa5fc4b064c)" d="M 73.832727 222.267564 
L 73.832727 224.776871 
L 109.905455 141.969743 
L 145.978182 141.969743 
L 182.050909 141.969743 
L 218.123636 141.969743 
L 254.196364 141.969743 
L 290.269091 141.969743 
L 326.341818 141.969743 
L 362.414545 139.460436 
L 398.487273 141.969743 
L 398.487273 136.951129 
L 398.487273 136.951129 
L 362.414545 134.441822 
L 326.341818 136.951129 
L 290.269091 136.951129 
L 254.196364 136.951129 
L 218.123636 136.951129 
L 182.050909 136.951129 
L 145.978182 136.951129 
L 109.905455 136.951129 
L 73.832727 222.267564 
z
" style="fill:#d62728;"/>
   </g>
   <g id="PolyCollection_35">
    <path clip-path="url(#pa5fc4b064c)" d="M 73.832727 219.758257 
L 73.832727 222.267564 
L 109.905455 136.951129 
L 145.978182 136.951129 
L 182.050909 136.951129 
L 218.123636 136.951129 
L 254.196364 136.951129 
L 290.269091 136.951129 
L 326.341818 136.951129 
L 362.414545 134.441822 
L 398.487273 136.951129 
L 398.487273 131.932515 
L 398.487273 131.932515 
L 362.414545 129.423208 
L 326.341818 131.932515 
L 290.269091 131.932515 
L 254.196364 131.932515 
L 218.123636 131.932515 
L 182.050909 131.932515 
L 145.978182 131.932515 
L 109.905455 131.932515 
L 73.832727 219.758257 
z
" style="fill:#9467bd;"/>
   </g>
   <g id="PolyCollection_36">
    <path clip-path="url(#pa5fc4b064c)" d="M 73.832727 217.24895 
L 73.832727 219.758257 
L 109.905455 131.932515 
L 145.978182 131.932515 
L 182.050909 131.932515 
L 218.123636 131.932515 
L 254.196364 131.932515 
L 290.269091 131.932515 
L 326.341818 131.932515 
L 362.414545 129.423208 
L 398.487273 131.932515 
L 398.487273 126.913901 
L 398.487273 126.913901 
L 362.414545 124.404594 
L 326.341818 126.913901 
L 290.269091 126.913901 
L 254.196364 126.913901 
L 218.123636 126.913901 
L 182.050909 126.913901 
L 145.978182 126.913901 
L 109.905455 126.913901 
L 73.832727 217.24895 
z
" style="fill:#8c564b;"/>
   </g>
   <g id="PolyCollection_37">
    <path clip-path="url(#pa5fc4b064c)" d="M 73.832727 214.739644 
L 73.832727 217.24895 
L 109.905455 126.913901 
L 145.978182 126.913901 
L 182.050909 126.913901 
L 218.123636 126.913901 
L 254.196364 126.913901 
L 290.269091 126.913901 
L 326.341818 126.913901 
L 362.414545 124.404594 
L 398.487273 126.913901 
L 398.487273 121.895287 
L 398.487273 121.895287 
L 362.414545 119.38598 
L 326.341818 121.895287 
L 290.269091 121.895287 
L 254.196364 121.895287 
L 218.123636 121.895287 
L 182.050909 121.895287 
L 145.978182 121.895287 
L 109.905455 121.895287 
L 73.832727 214.739644 
z
" style="fill:#e377c2;"/>
   </g>
   <g id="PolyCollection_38">
    <path clip-path="url(#pa5fc4b064c)" d="M 73.832727 212.230337 
L 73.832727 214.739644 
L 109.905455 121.895287 
L 145.978182 121.895287 
L 182.050909 121.895287 
L 218.123636 121.895287 
L 254.196364 121.895287 
L 290.269091 121.895287 
L 326.341818 121.895287 
L 362.414545 119.38598 
L 398.487273 121.895287 
L 398.487273 116.876673 
L 398.487273 116.876673 
L 362.414545 114.367366 
L 326.341818 116.876673 
L 290.269091 116.876673 
L 254.196364 116.876673 
L 218.123636 116.876673 
L 182.050909 116.876673 
L 145.978182 116.876673 
L 109.905455 116.876673 
L 73.832727 212.230337 
z
" style="fill:#7f7f7f;"/>
   </g>
   <g id="PolyCollection_39">
    <path clip-path="url(#pa5fc4b064c)" d="M 73.832727 209.72103 
L 73.832727 212.230337 
L 109.905455 116.876673 
L 145.978182 116.876673 
L 182.050909 116.876673 
L 218.123636 116.876673 
L 254.196364 116.876673 
L 290.269091 116.876673 
L 326.341818 116.876673 
L 362.414545 114.367366 
L 398.487273 116.876673 
L 398.487273 111.858059 
L 398.487273 111.858059 
L 362.414545 109.348752 
L 326.341818 111.858059 
L 290.269091 111.858059 
L 254.196364 111.858059 
L 218.123636 111.858059 
L 182.050909 111.858059 
L 145.978182 111.858059 
L 109.905455 111.858059 
L 73.832727 209.72103 
z
" style="fill:#bcbd22;"/>
   </g>
   <g id="PolyCollection_40">
    <path clip-path="url(#pa5fc4b064c)" d="M 73.832727 207.211723 
L 73.832727 209.72103 
L 109.905455 111.858059 
L 145.978182 111.858059 
L 182.050909 111.858059 
L 218.123636 111.858059 
L 254.196364 111.858059 
L 290.269091 111.858059 
L 326.341818 111.858059 
L 362.414545 109.348752 
L 398.487273 111.858059 
L 398.487273 106.839446 
L 398.487273 106.839446 
L 362.414545 104.330139 
L 326.341818 106.839446 
L 290.269091 106.839446 
L 254.196364 106.839446 
L 218.123636 106.839446 
L 182.050909 106.839446 
L 145.978182 106.839446 
L 109.905455 106.839446 
L 73.832727 207.211723 
z
" style="fill:#17becf;"/>
   </g>
   <g id="PolyCollection_41">
    <path clip-path="url(#pa5fc4b064c)" d="M 73.832727 204.702416 
L 73.832727 207.211723 
L 109.905455 106.839446 
L 145.978182 106.839446 
L 182.050909 106.839446 
L 218.123636 106.839446 
L 254.196364 106.839446 
L 290.269091 106.839446 
L 326.341818 106.839446 
L 362.414545 104.330139 
L 398.487273 106.839446 
L 398.487273 101.820832 
L 398.487273 101.820832 
L 362.414545 99.311525 
L 326.341818 101.820832 
L 290.269091 101.820832 
L 254.196364 101.820832 
L 218.123636 101.820832 
L 182.050909 101.820832 
L 145.978182 101.820832 
L 109.905455 101.820832 
L 73.832727 204.702416 
z
" style="fill:#1f77b4;"/>
   </g>
   <g id="PolyCollection_42">
    <path clip-path="url(#pa5fc4b064c)" d="M 73.832727 202.193109 
L 73.832727 204.702416 
L 109.905455 101.820832 
L 145.978182 101.820832 
L 182.050909 101.820832 
L 218.123636 101.820832 
L 254.196364 101.820832 
L 290.269091 101.820832 
L 326.341818 101.820832 
L 362.414545 99.311525 
L 398.487273 101.820832 
L 398.487273 96.802218 
L 398.487273 96.802218 
L 362.414545 94.292911 
L 326.341818 96.802218 
L 290.269091 96.802218 
L 254.196364 96.802218 
L 218.123636 96.802218 
L 182.050909 96.802218 
L 145.978182 96.802218 
L 109.905455 96.802218 
L 73.832727 202.193109 
z
" style="fill:#ff7f0e;"/>
   </g>
   <g id="PolyCollection_43">
    <path clip-path="url(#pa5fc4b064c)" d="M 73.832727 199.683802 
L 73.832727 202.193109 
L 109.905455 96.802218 
L 145.978182 96.802218 
L 182.050909 96.802218 
L 218.123636 96.802218 
L 254.196364 96.802218 
L 290.269091 96.802218 
L 326.341818 96.802218 
L 362.414545 94.292911 
L 398.487273 96.802218 
L 398.487273 91.783604 
L 398.487273 91.783604 
L 362.414545 89.274297 
L 326.341818 91.783604 
L 290.269091 91.783604 
L 254.196364 91.783604 
L 218.123636 91.783604 
L 182.050909 91.783604 
L 145.978182 91.783604 
L 109.905455 91.783604 
L 73.832727 199.683802 
z
" style="fill:#2ca02c;"/>
   </g>
   <g id="PolyCollection_44">
    <path clip-path="url(#pa5fc4b064c)" d="M 73.832727 197.174495 
L 73.832727 199.683802 
L 109.905455 91.783604 
L 145.978182 91.783604 
L 182.050909 91.783604 
L 218.123636 91.783604 
L 254.196364 91.783604 
L 290.269091 91.783604 
L 326.341818 91.783604 
L 362.414545 89.274297 
L 398.487273 91.783604 
L 398.487273 86.76499 
L 398.487273 86.76499 
L 362.414545 84.255683 
L 326.341818 86.76499 
L 290.269091 86.76499 
L 254.196364 86.76499 
L 218.123636 86.76499 
L 182.050909 86.76499 
L 145.978182 86.76499 
L 109.905455 86.76499 
L 73.832727 197.174495 
z
" style="fill:#d62728;"/>
   </g>
   <g id="PolyCollection_45">
    <path clip-path="url(#pa5fc4b064c)" d="M 73.832727 194.665188 
L 73.832727 197.174495 
L 109.905455 86.76499 
L 145.978182 86.76499 
L 182.050909 86.76499 
L 218.123636 86.76499 
L 254.196364 86.76499 
L 290.269091 86.76499 
L 326.341818 86.76499 
L 362.414545 84.255683 
L 398.487273 86.76499 
L 398.487273 81.746376 
L 398.487273 81.746376 
L 362.414545 79.237069 
L 326.341818 81.746376 
L 290.269091 81.746376 
L 254.196364 81.746376 
L 218.123636 81.746376 
L 182.050909 81.746376 
L 145.978182 81.746376 
L 109.905455 81.746376 
L 73.832727 194.665188 
z
" style="fill:#9467bd;"/>
   </g>
   <g id="PolyCollection_46">
    <path clip-path="url(#pa5fc4b064c)" d="M 73.832727 192.155881 
L 73.832727 194.665188 
L 109.905455 81.746376 
L 145.978182 81.746376 
L 182.050909 81.746376 
L 218.123636 81.746376 
L 254.196364 81.746376 
L 290.269091 81.746376 
L 326.341818 81.746376 
L 362.414545 79.237069 
L 398.487273 81.746376 
L 398.487273 76.727762 
L 398.487273 76.727762 
L 362.414545 74.218455 
L 326.341818 76.727762 
L 290.269091 76.727762 
L 254.196364 76.727762 
L 218.123636 76.727762 
L 182.050909 76.727762 
L 145.978182 76.727762 
L 109.905455 76.727762 
L 73.832727 192.155881 
z
" style="fill:#8c564b;"/>
   </g>
   <g id="PolyCollection_47">
    <path clip-path="url(#pa5fc4b064c)" d="M 73.832727 189.646574 
L 73.832727 192.155881 
L 109.905455 76.727762 
L 145.978182 76.727762 
L 182.050909 76.727762 
L 218.123636 76.727762 
L 254.196364 76.727762 
L 290.269091 76.727762 
L 326.341818 76.727762 
L 362.414545 74.218455 
L 398.487273 76.727762 
L 398.487273 71.709149 
L 398.487273 71.709149 
L 362.414545 69.199842 
L 326.341818 71.709149 
L 290.269091 71.709149 
L 254.196364 71.709149 
L 218.123636 71.709149 
L 182.050909 71.709149 
L 145.978182 71.709149 
L 109.905455 71.709149 
L 73.832727 189.646574 
z
" style="fill:#e377c2;"/>
   </g>
   <g id="PolyCollection_48">
    <path clip-path="url(#pa5fc4b064c)" d="M 73.832727 187.137267 
L 73.832727 189.646574 
L 109.905455 71.709149 
L 145.978182 71.709149 
L 182.050909 71.709149 
L 218.123636 71.709149 
L 254.196364 71.709149 
L 290.269091 71.709149 
L 326.341818 71.709149 
L 362.414545 69.199842 
L 398.487273 71.709149 
L 398.487273 66.690535 
L 398.487273 66.690535 
L 362.414545 64.181228 
L 326.341818 66.690535 
L 290.269091 66.690535 
L 254.196364 66.690535 
L 218.123636 66.690535 
L 182.050909 66.690535 
L 145.978182 66.690535 
L 109.905455 66.690535 
L 73.832727 187.137267 
z
" style="fill:#7f7f7f;"/>
   </g>
   <g id="PolyCollection_49">
    <path clip-path="url(#pa5fc4b064c)" d="M 73.832727 184.62796 
L 73.832727 187.137267 
L 109.905455 66.690535 
L 145.978182 66.690535 
L 182.050909 66.690535 
L 218.123636 66.690535 
L 254.196364 66.690535 
L 290.269091 66.690535 
L 326.341818 66.690535 
L 362.414545 64.181228 
L 398.487273 66.690535 
L 398.487273 61.671921 
L 398.487273 61.671921 
L 362.414545 59.162614 
L 326.341818 61.671921 
L 290.269091 61.671921 
L 254.196364 61.671921 
L 218.123636 61.671921 
L 182.050909 61.671921 
L 145.978182 61.671921 
L 109.905455 61.671921 
L 73.832727 184.62796 
z
" style="fill:#bcbd22;"/>
   </g>
   <g id="PolyCollection_50">
    <path clip-path="url(#pa5fc4b064c)" d="M 73.832727 182.118653 
L 73.832727 184.62796 
L 109.905455 61.671921 
L 145.978182 61.671921 
L 182.050909 61.671921 
L 218.123636 61.671921 
L 254.196364 61.671921 
L 290.269091 61.671921 
L 326.341818 61.671921 
L 362.414545 59.162614 
L 398.487273 61.671921 
L 398.487273 56.653307 
L 398.487273 56.653307 
L 362.414545 54.144 
L 326.341818 56.653307 
L 290.269091 56.653307 
L 254.196364 56.653307 
L 218.123636 56.653307 
L 182.050909 56.653307 
L 145.978182 56.653307 
L 109.905455 56.653307 
L 73.832727 182.118653 
z
" style="fill:#17becf;"/>
   </g>
   <g id="matplotlib.axis_1">
    <g id="xtick_1">
     <g id="line2d_1">
      <defs>
       <path d="M 0 0 
L 0 3.5 
" id="ma6a3ad8853" style="stroke:#000000;stroke-width:0.8;"/>
      </defs>
      <g>
       <use style="stroke:#000000;stroke-width:0.8;" x="73.832727" xlink:href="#ma6a3ad8853" y="307.584"/>
      </g>
     </g>
     <g id="text_1">
      <!-- 0 -->
      <g transform="translate(70.651477 322.182437)scale(0.1 -0.1)">
       <defs>
        <path d="M 2034 4250 
Q 1547 4250 1301 3770 
Q 1056 3291 1056 2328 
Q 1056 1369 1301 889 
Q 1547 409 2034 409 
Q 2525 409 2770 889 
Q 3016 1369 3016 2328 
Q 3016 3291 2770 3770 
Q 2525 4250 2034 4250 
z
M 2034 4750 
Q 2819 4750 3233 4129 
Q 3647 3509 3647 2328 
Q 3647 1150 3233 529 
Q 2819 -91 2034 -91 
Q 1250 -91 836 529 
Q 422 1150 422 2328 
Q 422 3509 836 4129 
Q 1250 4750 2034 4750 
z
" id="DejaVuSans-30" transform="scale(0.015625)"/>
       </defs>
       <use xlink:href="#DejaVuSans-30"/>
      </g>
     </g>
    </g>
    <g id="xtick_2">
     <g id="line2d_2">
      <g>
       <use style="stroke:#000000;stroke-width:0.8;" x="145.978182" xlink:href="#ma6a3ad8853" y="307.584"/>
      </g>
     </g>
     <g id="text_2">
      <!-- 2 -->
      <g transform="translate(142.796932 322.182437)scale(0.1 -0.1)">
       <defs>
        <path d="M 1228 531 
L 3431 531 
L 3431 0 
L 469 0 
L 469 531 
Q 828 903 1448 1529 
Q 2069 2156 2228 2338 
Q 2531 2678 2651 2914 
Q 2772 3150 2772 3378 
Q 2772 3750 2511 3984 
Q 2250 4219 1831 4219 
Q 1534 4219 1204 4116 
Q 875 4013 500 3803 
L 500 4441 
Q 881 4594 1212 4672 
Q 1544 4750 1819 4750 
Q 2544 4750 2975 4387 
Q 3406 4025 3406 3419 
Q 3406 3131 3298 2873 
Q 3191 2616 2906 2266 
Q 2828 2175 2409 1742 
Q 1991 1309 1228 531 
z
" id="DejaVuSans-32" transform="scale(0.015625)"/>
       </defs>
       <use xlink:href="#DejaVuSans-32"/>
      </g>
     </g>
    </g>
    <g id="xtick_3">
     <g id="line2d_3">
      <g>
       <use style="stroke:#000000;stroke-width:0.8;" x="218.123636" xlink:href="#ma6a3ad8853" y="307.584"/>
      </g>
     </g>
     <g id="text_3">
      <!-- 4 -->
      <g transform="translate(214.942386 322.182437)scale(0.1 -0.1)">
       <defs>
        <path d="M 2419 4116 
L 825 1625 
L 2419 1625 
L 2419 4116 
z
M 2253 4666 
L 3047 4666 
L 3047 1625 
L 3713 1625 
L 3713 1100 
L 3047 1100 
L 3047 0 
L 2419 0 
L 2419 1100 
L 313 1100 
L 313 1709 
L 2253 4666 
z
" id="DejaVuSans-34" transform="scale(0.015625)"/>
       </defs>
       <use xlink:href="#DejaVuSans-34"/>
      </g>
     </g>
    </g>
    <g id="xtick_4">
     <g id="line2d_4">
      <g>
       <use style="stroke:#000000;stroke-width:0.8;" x="290.269091" xlink:href="#ma6a3ad8853" y="307.584"/>
      </g>
     </g>
     <g id="text_4">
      <!-- 6 -->
      <g transform="translate(287.087841 322.182437)scale(0.1 -0.1)">
       <defs>
        <path d="M 2113 2584 
Q 1688 2584 1439 2293 
Q 1191 2003 1191 1497 
Q 1191 994 1439 701 
Q 1688 409 2113 409 
Q 2538 409 2786 701 
Q 3034 994 3034 1497 
Q 3034 2003 2786 2293 
Q 2538 2584 2113 2584 
z
M 3366 4563 
L 3366 3988 
Q 3128 4100 2886 4159 
Q 2644 4219 2406 4219 
Q 1781 4219 1451 3797 
Q 1122 3375 1075 2522 
Q 1259 2794 1537 2939 
Q 1816 3084 2150 3084 
Q 2853 3084 3261 2657 
Q 3669 2231 3669 1497 
Q 3669 778 3244 343 
Q 2819 -91 2113 -91 
Q 1303 -91 875 529 
Q 447 1150 447 2328 
Q 447 3434 972 4092 
Q 1497 4750 2381 4750 
Q 2619 4750 2861 4703 
Q 3103 4656 3366 4563 
z
" id="DejaVuSans-36" transform="scale(0.015625)"/>
       </defs>
       <use xlink:href="#DejaVuSans-36"/>
      </g>
     </g>
    </g>
    <g id="xtick_5">
     <g id="line2d_5">
      <g>
       <use style="stroke:#000000;stroke-width:0.8;" x="362.414545" xlink:href="#ma6a3ad8853" y="307.584"/>
      </g>
     </g>
     <g id="text_5">
      <!-- 8 -->
      <g transform="translate(359.233295 322.182437)scale(0.1 -0.1)">
       <defs>
        <path d="M 2034 2216 
Q 1584 2216 1326 1975 
Q 1069 1734 1069 1313 
Q 1069 891 1326 650 
Q 1584 409 2034 409 
Q 2484 409 2743 651 
Q 3003 894 3003 1313 
Q 3003 1734 2745 1975 
Q 2488 2216 2034 2216 
z
M 1403 2484 
Q 997 2584 770 2862 
Q 544 3141 544 3541 
Q 544 4100 942 4425 
Q 1341 4750 2034 4750 
Q 2731 4750 3128 4425 
Q 3525 4100 3525 3541 
Q 3525 3141 3298 2862 
Q 3072 2584 2669 2484 
Q 3125 2378 3379 2068 
Q 3634 1759 3634 1313 
Q 3634 634 3220 271 
Q 2806 -91 2034 -91 
Q 1263 -91 848 271 
Q 434 634 434 1313 
Q 434 1759 690 2068 
Q 947 2378 1403 2484 
z
M 1172 3481 
Q 1172 3119 1398 2916 
Q 1625 2713 2034 2713 
Q 2441 2713 2670 2916 
Q 2900 3119 2900 3481 
Q 2900 3844 2670 4047 
Q 2441 4250 2034 4250 
Q 1625 4250 1398 4047 
Q 1172 3844 1172 3481 
z
" id="DejaVuSans-38" transform="scale(0.015625)"/>
       </defs>
       <use xlink:href="#DejaVuSans-38"/>
      </g>
     </g>
    </g>
    <g id="text_6">
     <!-- Generations -->
     <g transform="translate(205.662344 335.860562)scale(0.1 -0.1)">
      <defs>
       <path d="M 3809 666 
L 3809 1919 
L 2778 1919 
L 2778 2438 
L 4434 2438 
L 4434 434 
Q 4069 175 3628 42 
Q 3188 -91 2688 -91 
Q 1594 -91 976 548 
Q 359 1188 359 2328 
Q 359 3472 976 4111 
Q 1594 4750 2688 4750 
Q 3144 4750 3555 4637 
Q 3966 4525 4313 4306 
L 4313 3634 
Q 3963 3931 3569 4081 
Q 3175 4231 2741 4231 
Q 1884 4231 1454 3753 
Q 1025 3275 1025 2328 
Q 1025 1384 1454 906 
Q 1884 428 2741 428 
Q 3075 428 3337 486 
Q 3600 544 3809 666 
z
" id="DejaVuSans-47" transform="scale(0.015625)"/>
       <path d="M 3597 1894 
L 3597 1613 
L 953 1613 
Q 991 1019 1311 708 
Q 1631 397 2203 397 
Q 2534 397 2845 478 
Q 3156 559 3463 722 
L 3463 178 
Q 3153 47 2828 -22 
Q 2503 -91 2169 -91 
Q 1331 -91 842 396 
Q 353 884 353 1716 
Q 353 2575 817 3079 
Q 1281 3584 2069 3584 
Q 2775 3584 3186 3129 
Q 3597 2675 3597 1894 
z
M 3022 2063 
Q 3016 2534 2758 2815 
Q 2500 3097 2075 3097 
Q 1594 3097 1305 2825 
Q 1016 2553 972 2059 
L 3022 2063 
z
" id="DejaVuSans-65" transform="scale(0.015625)"/>
       <path d="M 3513 2113 
L 3513 0 
L 2938 0 
L 2938 2094 
Q 2938 2591 2744 2837 
Q 2550 3084 2163 3084 
Q 1697 3084 1428 2787 
Q 1159 2491 1159 1978 
L 1159 0 
L 581 0 
L 581 3500 
L 1159 3500 
L 1159 2956 
Q 1366 3272 1645 3428 
Q 1925 3584 2291 3584 
Q 2894 3584 3203 3211 
Q 3513 2838 3513 2113 
z
" id="DejaVuSans-6e" transform="scale(0.015625)"/>
       <path d="M 2631 2963 
Q 2534 3019 2420 3045 
Q 2306 3072 2169 3072 
Q 1681 3072 1420 2755 
Q 1159 2438 1159 1844 
L 1159 0 
L 581 0 
L 581 3500 
L 1159 3500 
L 1159 2956 
Q 1341 3275 1631 3429 
Q 1922 3584 2338 3584 
Q 2397 3584 2469 3576 
Q 2541 3569 2628 3553 
L 2631 2963 
z
" id="DejaVuSans-72" transform="scale(0.015625)"/>
       <path d="M 2194 1759 
Q 1497 1759 1228 1600 
Q 959 1441 959 1056 
Q 959 750 1161 570 
Q 1363 391 1709 391 
Q 2188 391 2477 730 
Q 2766 1069 2766 1631 
L 2766 1759 
L 2194 1759 
z
M 3341 1997 
L 3341 0 
L 2766 0 
L 2766 531 
Q 2569 213 2275 61 
Q 1981 -91 1556 -91 
Q 1019 -91 701 211 
Q 384 513 384 1019 
Q 384 1609 779 1909 
Q 1175 2209 1959 2209 
L 2766 2209 
L 2766 2266 
Q 2766 2663 2505 2880 
Q 2244 3097 1772 3097 
Q 1472 3097 1187 3025 
Q 903 2953 641 2809 
L 641 3341 
Q 956 3463 1253 3523 
Q 1550 3584 1831 3584 
Q 2591 3584 2966 3190 
Q 3341 2797 3341 1997 
z
" id="DejaVuSans-61" transform="scale(0.015625)"/>
       <path d="M 1172 4494 
L 1172 3500 
L 2356 3500 
L 2356 3053 
L 1172 3053 
L 1172 1153 
Q 1172 725 1289 603 
Q 1406 481 1766 481 
L 2356 481 
L 2356 0 
L 1766 0 
Q 1100 0 847 248 
Q 594 497 594 1153 
L 594 3053 
L 172 3053 
L 172 3500 
L 594 3500 
L 594 4494 
L 1172 4494 
z
" id="DejaVuSans-74" transform="scale(0.015625)"/>
       <path d="M 603 3500 
L 1178 3500 
L 1178 0 
L 603 0 
L 603 3500 
z
M 603 4863 
L 1178 4863 
L 1178 4134 
L 603 4134 
L 603 4863 
z
" id="DejaVuSans-69" transform="scale(0.015625)"/>
       <path d="M 1959 3097 
Q 1497 3097 1228 2736 
Q 959 2375 959 1747 
Q 959 1119 1226 758 
Q 1494 397 1959 397 
Q 2419 397 2687 759 
Q 2956 1122 2956 1747 
Q 2956 2369 2687 2733 
Q 2419 3097 1959 3097 
z
M 1959 3584 
Q 2709 3584 3137 3096 
Q 3566 2609 3566 1747 
Q 3566 888 3137 398 
Q 2709 -91 1959 -91 
Q 1206 -91 779 398 
Q 353 888 353 1747 
Q 353 2609 779 3096 
Q 1206 3584 1959 3584 
z
" id="DejaVuSans-6f" transform="scale(0.015625)"/>
       <path d="M 2834 3397 
L 2834 2853 
Q 2591 2978 2328 3040 
Q 2066 3103 1784 3103 
Q 1356 3103 1142 2972 
Q 928 2841 928 2578 
Q 928 2378 1081 2264 
Q 1234 2150 1697 2047 
L 1894 2003 
Q 2506 1872 2764 1633 
Q 3022 1394 3022 966 
Q 3022 478 2636 193 
Q 2250 -91 1575 -91 
Q 1294 -91 989 -36 
Q 684 19 347 128 
L 347 722 
Q 666 556 975 473 
Q 1284 391 1588 391 
Q 1994 391 2212 530 
Q 2431 669 2431 922 
Q 2431 1156 2273 1281 
Q 2116 1406 1581 1522 
L 1381 1569 
Q 847 1681 609 1914 
Q 372 2147 372 2553 
Q 372 3047 722 3315 
Q 1072 3584 1716 3584 
Q 2034 3584 2315 3537 
Q 2597 3491 2834 3397 
z
" id="DejaVuSans-73" transform="scale(0.015625)"/>
      </defs>
      <use xlink:href="#DejaVuSans-47"/>
      <use x="77.490234" xlink:href="#DejaVuSans-65"/>
      <use x="139.013672" xlink:href="#DejaVuSans-6e"/>
      <use x="202.392578" xlink:href="#DejaVuSans-65"/>
      <use x="263.916016" xlink:href="#DejaVuSans-72"/>
      <use x="305.029297" xlink:href="#DejaVuSans-61"/>
      <use x="366.308594" xlink:href="#DejaVuSans-74"/>
      <use x="405.517578" xlink:href="#DejaVuSans-69"/>
      <use x="433.300781" xlink:href="#DejaVuSans-6f"/>
      <use x="494.482422" xlink:href="#DejaVuSans-6e"/>
      <use x="557.861328" xlink:href="#DejaVuSans-73"/>
     </g>
    </g>
   </g>
   <g id="matplotlib.axis_2">
    <g id="ytick_1">
     <g id="line2d_6">
      <defs>
       <path d="M 0 0 
L -3.5 0 
" id="me3ac8b519d" style="stroke:#000000;stroke-width:0.8;"/>
      </defs>
      <g>
       <use style="stroke:#000000;stroke-width:0.8;" x="57.6" xlink:href="#me3ac8b519d" y="307.584"/>
      </g>
     </g>
     <g id="text_7">
      <!-- 0 -->
      <g transform="translate(44.2375 311.383219)scale(0.1 -0.1)">
       <use xlink:href="#DejaVuSans-30"/>
      </g>
     </g>
    </g>
    <g id="ytick_2">
     <g id="line2d_7">
      <g>
       <use style="stroke:#000000;stroke-width:0.8;" x="57.6" xlink:href="#me3ac8b519d" y="257.397861"/>
      </g>
     </g>
     <g id="text_8">
      <!-- 20 -->
      <g transform="translate(37.875 261.19708)scale(0.1 -0.1)">
       <use xlink:href="#DejaVuSans-32"/>
       <use x="63.623047" xlink:href="#DejaVuSans-30"/>
      </g>
     </g>
    </g>
    <g id="ytick_3">
     <g id="line2d_8">
      <g>
       <use style="stroke:#000000;stroke-width:0.8;" x="57.6" xlink:href="#me3ac8b519d" y="207.211723"/>
      </g>
     </g>
     <g id="text_9">
      <!-- 40 -->
      <g transform="translate(37.875 211.010942)scale(0.1 -0.1)">
       <use xlink:href="#DejaVuSans-34"/>
       <use x="63.623047" xlink:href="#DejaVuSans-30"/>
      </g>
     </g>
    </g>
    <g id="ytick_4">
     <g id="line2d_9">
      <g>
       <use style="stroke:#000000;stroke-width:0.8;" x="57.6" xlink:href="#me3ac8b519d" y="157.025584"/>
      </g>
     </g>
     <g id="text_10">
      <!-- 60 -->
      <g transform="translate(37.875 160.824803)scale(0.1 -0.1)">
       <use xlink:href="#DejaVuSans-36"/>
       <use x="63.623047" xlink:href="#DejaVuSans-30"/>
      </g>
     </g>
    </g>
    <g id="ytick_5">
     <g id="line2d_10">
      <g>
       <use style="stroke:#000000;stroke-width:0.8;" x="57.6" xlink:href="#me3ac8b519d" y="106.839446"/>
      </g>
     </g>
     <g id="text_11">
      <!-- 80 -->
      <g transform="translate(37.875 110.638664)scale(0.1 -0.1)">
       <use xlink:href="#DejaVuSans-38"/>
       <use x="63.623047" xlink:href="#DejaVuSans-30"/>
      </g>
     </g>
    </g>
    <g id="ytick_6">
     <g id="line2d_11">
      <g>
       <use style="stroke:#000000;stroke-width:0.8;" x="57.6" xlink:href="#me3ac8b519d" y="56.653307"/>
      </g>
     </g>
     <g id="text_12">
      <!-- 100 -->
      <g transform="translate(31.5125 60.452526)scale(0.1 -0.1)">
       <defs>
        <path d="M 794 531 
L 1825 531 
L 1825 4091 
L 703 3866 
L 703 4441 
L 1819 4666 
L 2450 4666 
L 2450 531 
L 3481 531 
L 3481 0 
L 794 0 
L 794 531 
z
" id="DejaVuSans-31" transform="scale(0.015625)"/>
       </defs>
       <use xlink:href="#DejaVuSans-31"/>
       <use x="63.623047" xlink:href="#DejaVuSans-30"/>
       <use x="127.246094" xlink:href="#DejaVuSans-30"/>
      </g>
     </g>
    </g>
    <g id="text_13">
     <!-- Size per Species -->
     <g transform="translate(25.432812 215.520969)rotate(-90)scale(0.1 -0.1)">
      <defs>
       <path d="M 3425 4513 
L 3425 3897 
Q 3066 4069 2747 4153 
Q 2428 4238 2131 4238 
Q 1616 4238 1336 4038 
Q 1056 3838 1056 3469 
Q 1056 3159 1242 3001 
Q 1428 2844 1947 2747 
L 2328 2669 
Q 3034 2534 3370 2195 
Q 3706 1856 3706 1288 
Q 3706 609 3251 259 
Q 2797 -91 1919 -91 
Q 1588 -91 1214 -16 
Q 841 59 441 206 
L 441 856 
Q 825 641 1194 531 
Q 1563 422 1919 422 
Q 2459 422 2753 634 
Q 3047 847 3047 1241 
Q 3047 1584 2836 1778 
Q 2625 1972 2144 2069 
L 1759 2144 
Q 1053 2284 737 2584 
Q 422 2884 422 3419 
Q 422 4038 858 4394 
Q 1294 4750 2059 4750 
Q 2388 4750 2728 4690 
Q 3069 4631 3425 4513 
z
" id="DejaVuSans-53" transform="scale(0.015625)"/>
       <path d="M 353 3500 
L 3084 3500 
L 3084 2975 
L 922 459 
L 3084 459 
L 3084 0 
L 275 0 
L 275 525 
L 2438 3041 
L 353 3041 
L 353 3500 
z
" id="DejaVuSans-7a" transform="scale(0.015625)"/>
       <path id="DejaVuSans-20" transform="scale(0.015625)"/>
       <path d="M 1159 525 
L 1159 -1331 
L 581 -1331 
L 581 3500 
L 1159 3500 
L 1159 2969 
Q 1341 3281 1617 3432 
Q 1894 3584 2278 3584 
Q 2916 3584 3314 3078 
Q 3713 2572 3713 1747 
Q 3713 922 3314 415 
Q 2916 -91 2278 -91 
Q 1894 -91 1617 61 
Q 1341 213 1159 525 
z
M 3116 1747 
Q 3116 2381 2855 2742 
Q 2594 3103 2138 3103 
Q 1681 3103 1420 2742 
Q 1159 2381 1159 1747 
Q 1159 1113 1420 752 
Q 1681 391 2138 391 
Q 2594 391 2855 752 
Q 3116 1113 3116 1747 
z
" id="DejaVuSans-70" transform="scale(0.015625)"/>
       <path d="M 3122 3366 
L 3122 2828 
Q 2878 2963 2633 3030 
Q 2388 3097 2138 3097 
Q 1578 3097 1268 2742 
Q 959 2388 959 1747 
Q 959 1106 1268 751 
Q 1578 397 2138 397 
Q 2388 397 2633 464 
Q 2878 531 3122 666 
L 3122 134 
Q 2881 22 2623 -34 
Q 2366 -91 2075 -91 
Q 1284 -91 818 406 
Q 353 903 353 1747 
Q 353 2603 823 3093 
Q 1294 3584 2113 3584 
Q 2378 3584 2631 3529 
Q 2884 3475 3122 3366 
z
" id="DejaVuSans-63" transform="scale(0.015625)"/>
      </defs>
      <use xlink:href="#DejaVuSans-53"/>
      <use x="63.476562" xlink:href="#DejaVuSans-69"/>
      <use x="91.259766" xlink:href="#DejaVuSans-7a"/>
      <use x="143.75" xlink:href="#DejaVuSans-65"/>
      <use x="205.273438" xlink:href="#DejaVuSans-20"/>
      <use x="237.060547" xlink:href="#DejaVuSans-70"/>
      <use x="300.537109" xlink:href="#DejaVuSans-65"/>
      <use x="362.060547" xlink:href="#DejaVuSans-72"/>
      <use x="403.173828" xlink:href="#DejaVuSans-20"/>
      <use x="434.960938" xlink:href="#DejaVuSans-53"/>
      <use x="498.4375" xlink:href="#DejaVuSans-70"/>
      <use x="561.914062" xlink:href="#DejaVuSans-65"/>
      <use x="623.4375" xlink:href="#DejaVuSans-63"/>
      <use x="678.417969" xlink:href="#DejaVuSans-69"/>
      <use x="706.201172" xlink:href="#DejaVuSans-65"/>
      <use x="767.724609" xlink:href="#DejaVuSans-73"/>
     </g>
    </g>
   </g>
   <g id="patch_3">
    <path d="M 57.6 307.584 
L 57.6 41.472 
" style="fill:none;stroke:#000000;stroke-linecap:square;stroke-linejoin:miter;stroke-width:0.8;"/>
   </g>
   <g id="patch_4">
    <path d="M 414.72 307.584 
L 414.72 41.472 
" style="fill:none;stroke:#000000;stroke-linecap:square;stroke-linejoin:miter;stroke-width:0.8;"/>
   </g>
   <g id="patch_5">
    <path d="M 57.6 307.584 
L 414.72 307.584 
" style="fill:none;stroke:#000000;stroke-linecap:square;stroke-linejoin:miter;stroke-width:0.8;"/>
   </g>
   <g id="patch_6">
    <path d="M 57.6 41.472 
L 414.72 41.472 
" style="fill:none;stroke:#000000;stroke-linecap:square;stroke-linejoin:miter;stroke-width:0.8;"/>
   </g>
   <g id="text_14">
    <!-- Speciation -->
    <g transform="translate(204.714375 35.472)scale(0.12 -0.12)">
     <use xlink:href="#DejaVuSans-53"/>
     <use x="63.476562" xlink:href="#DejaVuSans-70"/>
     <use x="126.953125" xlink:href="#DejaVuSans-65"/>
     <use x="188.476562" xlink:href="#DejaVuSans-63"/>
     <use x="243.457031" xlink:href="#DejaVuSans-69"/>
     <use x="271.240234" xlink:href="#DejaVuSans-61"/>
     <use x="332.519531" xlink:href="#DejaVuSans-74"/>
     <use x="371.728516" xlink:href="#DejaVuSans-69"/>
     <use x="399.511719" xlink:href="#DejaVuSans-6f"/>
     <use x="460.693359" xlink:href="#DejaVuSans-6e"/>
    </g>
   </g>
  </g>
 </g>
 <defs>
  <clipPath id="pa5fc4b064c">
   <rect height="266.112" width="357.12" x="57.6" y="41.472"/>
  </clipPath>
 </defs>
</svg>
